<?xml version="1.0" standalone="no"?>
<!DOCTYPE svg PUBLIC "-//W3C//DTD SVG 20010904//EN"
 "http://www.w3.org/TR/2001/REC-SVG-20010904/DTD/svg10.dtd">
<svg version="1.0" xmlns="http://www.w3.org/2000/svg"
 width="123.000000pt" height="123.000000pt" viewBox="0 0 123.000000 123.000000"
 preserveAspectRatio="xMidYMid meet">
<metadata>
Created by potrace 1.14, written by Peter Selinger 2001-2017
</metadata>
<g transform="translate(0.000000,123.000000) scale(0.100000,-0.100000)"
fill="#000000" stroke="none">
<path d="M12 1218 c-14 -14 -17 -225 -3 -246 4 -8 19 -12 32 -10 23 3 24 6 27
100 l3 97 97 3 c94 3 97 4 100 27 2 13 -2 28 -10 32 -21 14 -232 11 -246 -3z"/>
<path d="M972 1221 c-8 -4 -12 -19 -10 -32 3 -23 6 -24 100 -27 l97 -3 3 -97
c3 -94 4 -97 27 -100 13 -2 28 2 32 10 14 21 11 232 -3 246 -14 14 -225 17
-246 3z"/>
<path d="M224 1007 c-2 -7 -3 -67 -2 -133 l3 -119 70 0 70 0 5 55 5 55 80 0
80 0 3 -297 2 -298 -22 -4 c-13 -3 -34 -7 -48 -8 -24 -3 -25 -6 -25 -68 l0
-65 170 0 170 0 0 65 c0 62 -1 65 -25 68 -14 1 -35 5 -48 8 l-22 4 2 298 3
297 80 0 80 0 5 -55 5 -55 70 0 70 0 0 130 0 130 -388 3 c-314 2 -389 0 -393
-11z"/>
<path d="M6 255 c-11 -31 -7 -230 6 -243 14 -14 225 -17 246 -3 8 4 12 19 10
32 -3 23 -6 24 -100 27 l-97 3 -3 97 c-3 96 -3 97 -29 100 -17 2 -29 -3 -33
-13z"/>
<path d="M1167 263 c-4 -3 -7 -48 -7 -99 l0 -93 -97 -3 c-95 -3 -98 -4 -101
-27 -2 -13 2 -28 10 -32 21 -14 232 -11 246 3 13 13 17 212 6 242 -6 16 -45
22 -57 9z"/>
</g>
</svg>
